<svg xmlns="http://www.w3.org/2000/svg" viewBox="0 0 320 320" fill="none" stroke="#1a1713" stroke-width="2.5" stroke-linecap="round" stroke-linejoin="round">
  
  <path d="M40 160 C 90 100, 230 100, 280 160"></path>
  
  <path d="M40 160 C 90 220, 230 220, 280 160"></path>
  
  <path d="M50 154 L42 148 M70 130 L66 122 M250 130 L254 122 M270 154 L278 148" stroke-width="2"></path>
  
  <circle cx="160" cy="160" r="46"></circle>
  
  <g stroke-width="1.6">
    <line x1="160" y1="118" x2="160" y2="132"></line>
    <line x1="160" y1="188" x2="160" y2="202"></line>
    <line x1="118" y1="160" x2="132" y2="160"></line>
    <line x1="188" y1="160" x2="202" y2="160"></line>
    <line x1="130" y1="130" x2="140" y2="140"></line>
    <line x1="190" y1="190" x2="180" y2="180"></line>
    <line x1="190" y1="130" x2="180" y2="140"></line>
    <line x1="130" y1="190" x2="140" y2="180"></line>
    <line x1="160" y1="122" x2="160" y2="128" transform="rotate(22 160 160)"></line>
    <line x1="160" y1="122" x2="160" y2="128" transform="rotate(-22 160 160)"></line>
    <line x1="160" y1="192" x2="160" y2="198" transform="rotate(22 160 160)"></line>
    <line x1="160" y1="192" x2="160" y2="198" transform="rotate(-22 160 160)"></line>
    <line x1="122" y1="160" x2="128" y2="160" transform="rotate(22 160 160)"></line>
    <line x1="122" y1="160" x2="128" y2="160" transform="rotate(-22 160 160)"></line>
    <line x1="192" y1="160" x2="198" y2="160" transform="rotate(22 160 160)"></line>
    <line x1="192" y1="160" x2="198" y2="160" transform="rotate(-22 160 160)"></line>
  </g>
  
  <circle cx="160" cy="160" r="16" fill="#1a1713" stroke="none"></circle>
  <circle cx="160" cy="160" r="24" stroke-width="1.2" opacity="0.55"></circle>
  <circle cx="160" cy="160" r="32" stroke-width="1" opacity="0.35"></circle>
  
  <circle cx="154" cy="154" r="3" fill="#f6f2ea" stroke="none"></circle>
</svg>