<svg xmlns="http://www.w3.org/2000/svg" viewBox="0 0 320 320" fill="none" stroke="#1a1713" stroke-width="2.5" stroke-linecap="round" stroke-linejoin="round">
  
  
  <path d="M70 168&#xA;           C 86 152, 104 148, 124 154&#xA;           C 138 158, 150 160, 160 154&#xA;           C 170 160, 182 158, 196 154&#xA;           C 216 148, 234 152, 250 168"></path>
  
  <path d="M70 168&#xA;           C 96 178, 134 184, 160 184&#xA;           C 186 184, 224 178, 250 168" stroke-width="2"></path>
  
  <path d="M70 168&#xA;           C 90 196, 130 214, 160 214&#xA;           C 190 214, 230 196, 250 168"></path>
  
  <line x1="160" y1="138" x2="160" y2="156" stroke-width="1.4" opacity="0.5"></line>
  
  <line x1="148" y1="176" x2="172" y2="176" stroke="#1a1713" stroke-width="1.2" opacity="0.7"></line>
  
  <path d="M150 178 L 150 184 M158 178 L 158 185 M166 178 L 166 185 M170 178 L 170 184" stroke-width="0.8" opacity="0.35"></path>
  
  <g stroke-linecap="round">
    
    <path d="M268 144 Q 282 168 268 192" stroke-width="2" opacity="0.9"></path>
    <path d="M286 124 Q 308 168 286 212" stroke-width="1.6" opacity="0.6"></path>
    
    <path d="M52 144 Q 38 168 52 192" stroke-width="2" opacity="0.9"></path>
    <path d="M34 124 Q 12 168 34 212" stroke-width="1.6" opacity="0.6"></path>
  </g>
  
  <g stroke="#8a4a1f" stroke-width="2.2" stroke-linecap="round">
    <path d="M258 156 Q 268 168 258 180"></path>
    <path d="M62 156 Q 52 168 62 180"></path>
  </g>
</svg>