<svg xmlns="http://www.w3.org/2000/svg" viewBox="0 0 320 320" fill="none" stroke="#1a1713" stroke-width="2.5" stroke-linecap="round" stroke-linejoin="round">
  
  
  <path d="M210 80&#xA;           C 250 92, 264 130, 260 168&#xA;           C 256 206, 240 232, 218 248&#xA;           C 200 262, 184 268, 172 268&#xA;           C 160 268, 152 262, 152 252&#xA;           C 152 244, 158 238, 168 234"></path>
  
  <path d="M212 110&#xA;           C 232 120, 240 148, 236 178&#xA;           C 232 208, 218 226, 200 234&#xA;           C 188 240, 178 240, 174 232" stroke-width="2"></path>
  
  <path d="M180 188 C 174 188, 168 194, 168 204 C 168 212, 174 218, 180 218" stroke-width="2"></path>
  
  <path d="M196 170 C 188 178, 186 196, 194 210" stroke-width="1.6" opacity="0.7"></path>
  
  <path d="M168 234 C 158 244, 152 254, 158 264 C 164 272, 178 268, 184 260" stroke-width="2"></path>
  
  <g stroke-width="2" stroke-linecap="round" stroke="#8a4a1f">
    <path d="M120 168 Q 132 168 144 168" stroke-width="2.4"></path>
    <path d="M96 168 Q 112 148 128 144" stroke-width="2" opacity="0.85"></path>
    <path d="M76 168 Q 100 132 124 124" stroke-width="1.6" opacity="0.6"></path>
    <path d="M58 168 Q 88 116 122 104" stroke-width="1.2" opacity="0.4"></path>
  </g>
</svg>