<svg xmlns="http://www.w3.org/2000/svg" viewBox="0 0 320 320" fill="none" stroke="#1a1713" stroke-width="2.5" stroke-linecap="round" stroke-linejoin="round">
  
  <line x1="40" y1="290" x2="280" y2="290" stroke-width="1" opacity="0.2"></line>

  
  <g transform="translate(96 240) rotate(-6)">
    
    <path d="M0 0&#xA;             C -16 -6, -22 -28, -16 -52&#xA;             C -10 -72, 6 -76, 18 -68&#xA;             C 28 -60, 30 -40, 22 -16&#xA;             C 18 -4, 10 4, 0 0 Z" stroke-width="2.5"></path>
    
    <ellipse cx="22" cy="-78" rx="6" ry="5" stroke-width="2"></ellipse>
    <ellipse cx="10" cy="-86" rx="5" ry="4" stroke-width="1.8"></ellipse>
    <ellipse cx="-2" cy="-90" rx="4.5" ry="3.5" stroke-width="1.6"></ellipse>
    <ellipse cx="-12" cy="-90" rx="4" ry="3" stroke-width="1.4"></ellipse>
    <ellipse cx="-22" cy="-86" rx="3.5" ry="2.5" stroke-width="1.2"></ellipse>
  </g>

  
  <g transform="translate(180 188) rotate(6) scale(0.82)">
    <path d="M0 0&#xA;             C 16 -6, 22 -28, 16 -52&#xA;             C 10 -72, -6 -76, -18 -68&#xA;             C -28 -60, -30 -40, -22 -16&#xA;             C -18 -4, -10 4, 0 0 Z" stroke-width="2.2"></path>
    <ellipse cx="-22" cy="-78" rx="6" ry="5" stroke-width="1.8"></ellipse>
    <ellipse cx="-10" cy="-86" rx="5" ry="4" stroke-width="1.6"></ellipse>
    <ellipse cx="2" cy="-90" rx="4.5" ry="3.5" stroke-width="1.4"></ellipse>
    <ellipse cx="12" cy="-90" rx="4" ry="3" stroke-width="1.3"></ellipse>
    <ellipse cx="22" cy="-86" rx="3.5" ry="2.5" stroke-width="1.1"></ellipse>
  </g>

  
  <g transform="translate(110 132) rotate(-4) scale(0.66)" opacity="0.7">
    <path d="M0 0&#xA;             C -16 -6, -22 -28, -16 -52&#xA;             C -10 -72, 6 -76, 18 -68&#xA;             C 28 -60, 30 -40, 22 -16&#xA;             C 18 -4, 10 4, 0 0 Z" stroke-width="2"></path>
    <ellipse cx="22" cy="-78" rx="6" ry="5" stroke-width="1.6"></ellipse>
    <ellipse cx="10" cy="-86" rx="5" ry="4" stroke-width="1.4"></ellipse>
    <ellipse cx="-2" cy="-90" rx="4.5" ry="3.5" stroke-width="1.2"></ellipse>
    <ellipse cx="-12" cy="-90" rx="4" ry="3" stroke-width="1.1"></ellipse>
    <ellipse cx="-22" cy="-86" rx="3.5" ry="2.5" stroke-width="1"></ellipse>
  </g>

  
  <g transform="translate(190 86) rotate(4) scale(0.5)" opacity="0.45">
    <path d="M0 0&#xA;             C 16 -6, 22 -28, 16 -52&#xA;             C 10 -72, -6 -76, -18 -68&#xA;             C -28 -60, -30 -40, -22 -16&#xA;             C -18 -4, -10 4, 0 0 Z" stroke-width="1.8"></path>
    <ellipse cx="-22" cy="-78" rx="6" ry="5" stroke-width="1.4"></ellipse>
    <ellipse cx="-10" cy="-86" rx="5" ry="4" stroke-width="1.2"></ellipse>
    <ellipse cx="2" cy="-90" rx="4.5" ry="3.5" stroke-width="1.1"></ellipse>
    <ellipse cx="12" cy="-90" rx="4" ry="3" stroke-width="1"></ellipse>
    <ellipse cx="22" cy="-86" rx="3.5" ry="2.5" stroke-width="0.9"></ellipse>
  </g>
</svg>